<svg width="40" height="40" viewBox="0 0 40 40" fill="none" xmlns="http://www.w3.org/2000/svg"><path d="m21.5 9 .7 3.1c.8.2 1.6.5 2.3.9l2.7-1.6 2.4 2.4-1.6 2.7c.4.7.7 1.5.9 2.3l3.1.7v3l-3.1.7c-.2.8-.5 1.6-.9 2.3l1.6 2.7-2.4 2.4-2.7-1.6c-.7.4-1.5.7-2.3.9l-.7 3.1h-3l-.7-3.1c-.8-.2-1.6-.5-2.3-.9l-2.7 1.6-2.4-2.4 1.6-2.7c-.4-.7-.7-1.5-.9-2.3L8 22.5v-3l3.1-.7c.2-.8.5-1.6.9-2.3l-1.6-2.7 2.4-2.4 2.7 1.6c.7-.4 1.5-.7 2.3-.9l.7-3.1z" stroke="currentColor" stroke-width="2" stroke-linecap="round" stroke-linejoin="round"/><circle cx="20" cy="21" r="4" stroke="currentColor" stroke-width="2"/></svg>
